# xmcd
#
# Track frame offsets:
#	150
#	16987
#	30725
#	45087
#	64662
#	80362
#	98112
#	118637
#	137162
#	155637
#
# Disc length: 2452 seconds
#
# Revision: 0
# Processed by: cddbd v1.4PL0 Copyright (c) Steve Scherf et al.
# Submitted via: dBpowerAMP V4.0
#
DISCID=7509920a
DTITLE=The Bounty Hunters - Back to the Wall
DYEAR=1900
DGENRE=Country
TTITLE0=Still Life
TTITLE1=My Heart is Gone
TTITLE2=Back to the Wall
TTITLE3=A Year Ago Today
TTITLE4=Vodka Days and Whiskey Nights
TTITLE5=My Heart is Blind
TTITLE6=She Came Back
TTITLE7=Another Goodbye
TTITLE8=Train Man
TTITLE9=I Like Beer
EXTD=Bought at the Bowery in Myrtle Beach, SC
EXTT0=
EXTT1=
EXTT2=
EXTT3=
EXTT4=
EXTT5=
EXTT6=
EXTT7=
EXTT8=
EXTT9=
PLAYORDER=
